<?xml version="1.0" encoding="UTF-8"?>
<svg width="70px" height="61px" viewBox="0 0 70 61" version="1.1" xmlns="http://www.w3.org/2000/svg" xmlns:xlink="http://www.w3.org/1999/xlink">
    <!-- Generator: Sketch 46.2 (44496) - http://www.bohemiancoding.com/sketch -->
    <title>Page 1</title>
    <desc>Created with Sketch.</desc>
    <defs>
        <polygon id="path-1" points="0 0.0593283643 0 36.9999645 69.9762494 36.9999645 69.9762494 0.0593283643"></polygon>
        <polygon id="path-3" points="0.0757992826 0.0588908451 60.9357706 0.0588908451 60.9357706 24.9684771 0.0757992826 24.9684771 0.0757992826 0.0588908451"></polygon>
    </defs>
    <g id="Page-1" stroke="none" stroke-width="1" fill="none" fill-rule="evenodd">
        <g id="Mock-up---Auth" transform="translate(-685.000000, -250.000000)">
            <g id="modal" transform="translate(470.000000, 200.000000)">
                <g id="Page-1" transform="translate(215.000000, 50.000000)">
                    <g id="Group-3" transform="translate(0.000000, 24.000000)">
                        <mask id="mask-2" fill="white">
                            <use xlink:href="#path-1"></use>
                        </mask>
                        <g id="Clip-2"></g>
                        <path d="M34.9885919,4.34183022 L63.7585919,33.2562211 C63.3061486,33.383636 62.8236423,33.4507151 62.3309093,33.4507151 L7.64539295,33.4507151 C7.15265995,33.4507151 6.67024181,33.383636 6.21771033,33.2562211 L34.9885919,4.34183022 Z M69.9762494,1.83390456 C69.9762494,1.17961679 69.6185793,0.578477698 69.0455315,0.269523261 C68.4725718,-0.039253717 67.7769798,-0.0058028777 67.2357582,0.356832614 L51.0453048,11.2066168 C50.2348388,11.7498158 50.0151411,12.8514753 50.554864,13.6673386 C51.0946751,14.4830245 52.1891083,14.7040484 52.9998388,14.1608494 L66.449801,5.14748969 L66.449801,29.8691683 C66.449801,30.1972882 66.404927,30.5150269 66.3223199,30.8171492 L36.2344861,0.578211511 C35.5460353,-0.113519904 34.4310605,-0.113519904 33.7426977,0.578211511 L3.65398237,30.8172379 C3.57146348,30.5150269 3.5264131,30.197377 3.5264131,29.8691683 L3.5264131,5.16319472 L16.951073,14.2361803 C17.7596877,14.7826624 18.8550907,14.5658974 19.3978111,13.7522523 C19.9407078,12.9386072 19.7255063,11.8360604 18.917068,11.2897559 L2.7461864,0.360736691 C2.20540554,-0.00482685851 1.50857935,-0.0404071942 0.933856423,0.267926139 C0.35904534,0.576259472 -3.52644836e-05,1.17837458 -3.52644836e-05,1.83390456 L-3.52644836e-05,29.8691683 C-3.52644836e-05,31.7579429 0.734788413,33.4762691 1.92998992,34.7534345 C1.99540554,34.8375496 2.06725693,34.9172283 2.14783627,34.9891875 C2.18556927,35.0229046 2.22506549,35.0545808 2.26341562,35.0874993 C3.52905793,36.2729189 5.22395718,36.9999645 7.08512846,36.9999645 L62.8911738,36.9999645 C64.7521688,36.9999645 66.4468917,36.2730077 67.712534,35.0878542 C67.7510605,35.054847 67.7906448,35.0229933 67.828466,34.9891875 C67.9090453,34.9172283 67.981073,34.8374609 68.0464887,34.7531683 C69.2415139,33.4760916 69.9762494,31.7578542 69.9762494,29.8691683 L69.9762494,1.83390456 Z" id="Fill-1" fill="#687178" mask="url(#mask-2)"></path>
                    </g>
                    <g id="Group-6" transform="translate(4.000000, 0.000000)">
                        <mask id="mask-4" fill="white">
                            <use xlink:href="#path-3"></use>
                        </mask>
                        <g id="Clip-5"></g>
                        <path d="M59.1854119,0.0588820423 L1.82615796,0.0588820423 C0.859434864,0.0588820423 0.0757992826,0.847086268 0.0757992826,1.81944542 L0.0757992826,22.946206 C0.0757992826,23.9185651 0.859434864,24.7067694 1.82615796,24.7067694 C2.79288106,24.7067694 3.57651664,23.9185651 3.57651664,22.946206 L3.57651664,3.5800088 L57.4350532,3.5800088 L57.4350532,23.2079137 C57.4350532,24.1802729 58.2186888,24.9684771 59.1854119,24.9684771 C60.152135,24.9684771 60.9357706,24.1802729 60.9357706,23.2079137 L60.9357706,1.81944542 C60.9357706,0.847086268 60.152135,0.0588820423 59.1854119,0.0588820423" id="Fill-4" fill="#F4645E" mask="url(#mask-4)"></path>
                    </g>
                    <path d="M12.7699921,11 L44.2300079,11 C45.2075746,11 46,10.1046 46,9 C46,7.8954 45.2075746,7 44.2300079,7 L12.7699921,7 C11.7924254,7 11,7.8954 11,9 C11,10.1046 11.7924254,11 12.7699921,11" id="Fill-7" fill="#F4645E"></path>
                    <path d="M55.233531,13 L12.766469,13 C11.7908482,13 11,13.8954 11,15 C11,16.1046 11.7908482,17 12.766469,17 L55.233531,17 C56.2091518,17 57,16.1046 57,15 C57,13.8954 56.2091518,13 55.233531,13" id="Fill-9" fill="#F4645E"></path>
                    <path d="M55.233531,19 L12.766469,19 C11.7908482,19 11,19.8954 11,21 C11,22.1046 11.7908482,23 12.766469,23 L55.233531,23 C56.2091518,23 57,22.1046 57,21 C57,19.8954 56.2091518,19 55.233531,19" id="Fill-11" fill="#F4645E"></path>
                </g>
            </g>
        </g>
    </g>
</svg>